<svg xmlns="http://www.w3.org/2000/svg" version="1.1" xmlns:xlink="http://www.w3.org/1999/xlink" xmlns:svgjs="http://svgjs.dev/svgjs" width="2000" height="1252" viewBox="0 0 2000 1252"><g transform="matrix(1,0,0,1,-1.2121212121212466,-2.01935483870966)"><svg viewBox="0 0 396 248" data-background-color="#122023" preserveAspectRatio="xMidYMid meet" height="1252" width="2000" xmlns="http://www.w3.org/2000/svg" xmlns:xlink="http://www.w3.org/1999/xlink"><g id="tight-bounds" transform="matrix(1,0,0,1,0.2400000000000091,0.4000000000000057)"><svg viewBox="0 0 395.52 247.2" height="247.2" width="395.52"><g><svg></svg></g><g><svg viewBox="0 0 395.52 247.2" height="247.2" width="395.52"><g transform="matrix(1,0,0,1,39.55199999999999,65.80415802975884)"><svg viewBox="0 0 316.416 115.5916839404823" height="115.5916839404823" width="316.416"><g><svg viewBox="0 0 316.416 115.5916839404823" height="115.5916839404823" width="316.416"><g><svg viewBox="0 0 316.416 115.5916839404823" height="115.5916839404823" width="316.416"><g><svg viewBox="0 0 316.416 115.5916839404823" height="115.5916839404823" width="316.416"><g id="textblocktransform"><svg viewBox="0 0 316.416 115.5916839404823" height="115.5916839404823" width="316.416" id="textblock"><g><svg viewBox="0 0 316.416 115.5916839404823" height="115.5916839404823" width="316.416"><g transform="matrix(1,0,0,1,0,0)"><svg width="316.416" viewBox="0.75 -35.05 97.45 35.599999999999994" height="115.5916839404823" data-palette-color="#efefef"><path d="M31.4-0.85L24.2 0.25 21.75-9.5 9.8-9.5 7.15 0 0.75-0.5 5.15-12.65 11.85-34.15 20.8-34.8 27.25-13.4 31.4-0.85ZM20.25-14.8L16.3-28.3 15.65-28.3 11.35-14.8 20.25-14.8ZM44.35-34.85L50.65-15.6 51.15-15.6 58.45-34.6 65.35-34.4 65.55-12.9 66.5 0 59.75 0 60-13 59.45-26.15 53.45-9.6 47.3-9.3 41.7-26.15 41.25-13 41.6 0 35.4 0 36.1-12.15 36.4-33.6 44.35-34.85ZM85.55 0.55L85.55 0.55Q79 0.55 75-3.85 71-8.25 71-15.5L71-15.5Q71-23.75 76-29.4 81-35.05 88.3-35.05L88.3-35.05Q91.2-35.05 93.67-34.52 96.15-34 97.2-33.45L97.2-33.45 98.2-32.9 95.3-25.95Q93.8-26.95 91.25-27.83 88.7-28.7 86.75-28.7L86.75-28.7Q82.7-28.7 80.25-25.85 77.8-23 77.8-18.3L77.8-18.3Q77.8-11.95 80.12-8.4 82.45-4.85 86.59-4.85L86.59-4.85Q89.3-4.85 91.7-5.6L91.7-5.6 91.7-13.35 85.25-13.35 85.75-18.4 97.75-18.4 97.3-10.25 97.65-1.6Q90.3 0.55 85.55 0.55Z" opacity="1" transform="matrix(1,0,0,1,0,0)" fill="#ffffff" class="wordmark-text-0" data-fill-palette-color="primary" id="text-0"></path></svg></g></svg></g></svg></g></svg></g><g></g></svg></g></svg></g></svg></g><g><path d="M0 247.2v-247.2h395.52v247.2zM385.096 236.776v-226.352h-374.672v226.352z" fill="#ffffff" fill-rule="nonzero" stroke="none" stroke-width="1" stroke-linecap="butt" stroke-linejoin="miter" stroke-miterlimit="10" stroke-dasharray="" stroke-dashoffset="0" font-family="none" font-weight="none" font-size="none" text-anchor="none" style="mix-blend-mode: normal" data-fill-palette-color="tertiary"></path></g></svg></g><defs></defs></svg><rect width="395.52" height="247.2" fill="none" stroke="none" visibility="hidden"></rect></g></svg></g></svg>