<svg width="16" height="16" viewBox="0 0 16 16" fill="none" xmlns="http://www.w3.org/2000/svg">
  <path fill-rule="evenodd" clip-rule="evenodd" d="M8 0C3.582 0 0 3.582 0 8C0 11.535 2.292 14.43 5.471 15.538C5.875 15.608 6.004 15.354 6.004 15.137V13.722C3.921 14.177 3.581 12.918 3.581 12.918C3.271 12.108 2.804 11.903 2.804 11.903C2.17 11.503 2.816 11.512 2.816 11.512C3.479 11.563 3.829 12.181 3.829 12.181C4.429 13.136 5.384 12.847 5.769 12.678C5.836 12.249 6.02 11.97 6.228 11.79C4.541 11.612 2.823 10.916 2.823 7.762C2.823 6.872 3.159 6.166 3.704 5.622C3.608 5.424 3.296 4.569 3.788 3.44C3.788 3.44 4.508 3.232 5.994 4.308C6.644 4.123 7.346 4.037 8.048 4.034C8.751 4.037 9.453 4.123 10.103 4.308C11.589 3.232 12.309 3.44 12.309 3.44C12.801 4.569 12.489 5.424 12.393 5.622C12.938 6.166 13.274 6.872 13.274 7.762C13.274 10.923 11.551 11.607 9.856 11.779C10.123 11.984 10.365 12.388 10.365 12.971V15.14C10.365 15.358 10.494 15.615 10.903 15.538C14.082 14.429 16.374 11.535 16.374 8C16.374 3.582 12.418 0 8 0Z" fill="white"/>
</svg>
